<svg xmlns="http://www.w3.org/2000/svg" viewBox="0 0 64 56"><defs><style>.cls-1,.cls-2{fill:none;stroke:#6c9;stroke-linecap:round;stroke-width:2px;}.cls-1{stroke-linejoin:round;}.cls-2{stroke-miterlimit:10;}</style></defs><g id="Layer_2" data-name="Layer 2"><g id="_64x64px_icons" data-name="64x64px icons"><path class="cls-1" d="M50.09,12.5c-3.12,2.94-8.33,1.24-8.33,1.24s-4.7,2.46-6.59,2.65a3.39,3.39,0,0,1-3-1.42.74.74,0,0,1,.12-1l7.14-6.06,1.5-1.45"/><path class="cls-2" d="M47,20.69c2.59-.07,4.13-1.44,5.49-2.55A4.06,4.06,0,0,1,55,17h3.13"/><polyline class="cls-1" points="39.31 8 17 8 17 33 47 33 47 14.05"/><path class="cls-2" d="M29.81,8l8-6.09a4,4,0,0,1,2.81-.79L58.09,2.93"/><path class="cls-2" d="M61,1h-1.5C58.38,1,57.1,5,57.1,9.8S58.38,19,59.51,19h1.36"/><line class="cls-1" x1="14" y1="33" x2="17" y2="33"/><line class="cls-1" x1="47" y1="33" x2="50" y2="33"/><polyline class="cls-1" points="47.8 40 63 40 63 55"/><polyline class="cls-1" points="1 55 1 40 36.8 40"/><polyline class="cls-1" points="1 40 9 26 14 26"/><polyline class="cls-1" points="63 40 55 26 50 26"/></g></g></svg>