<svg id="Layer_1" data-name="Layer 1" xmlns="http://www.w3.org/2000/svg" viewBox="0 0 1366 1592.83"><defs><style>.cls-1{fill:none;stroke:#6c9;stroke-miterlimit:10;stroke-width:3px;}.cls-2{fill:#6c9;}</style></defs><line class="cls-1" x1="661.5" y1="1609.17" x2="661.5" y2="261.6"/><path class="cls-1" d="M662.64,585l-248-58.39c-82.37-19-165.07-38.1-247.44-57.12"/><path class="cls-2" d="M662.64,585l-248-58.39c-82.37-19-165.07-38.1-247.44-57.12"/><polyline class="cls-1" points="167.5 469.5 80.5 469 -6.5 468.5"/><polyline class="cls-2" points="167.5 469.5 80.5 469 -6.5 468.5"/><line class="cls-1" x1="430.3" y1="154.54" x2="662.32" y2="262.94"/><line class="cls-1" x1="431.15" y1="-7.26" x2="431.15" y2="155.89"/><line class="cls-1" x1="662.64" y1="506.7" x2="1211.05" y2="293.93"/><line class="cls-1" x1="1210.13" y1="-7.26" x2="1210.13" y2="295.3"/><line class="cls-1" x1="661.5" y1="826.49" x2="863.15" y2="711.79"/><line class="cls-1" x1="1389.36" y1="711.98" x2="862.38" y2="711.98"/><line class="cls-1" x1="1061.53" y1="711.98" x2="1224.72" y2="609.85"/><line class="cls-1" x1="1383.23" y1="610.11" x2="1223.91" y2="610.11"/><line class="cls-1" x1="662.64" y1="1421.26" x2="833.79" y2="1500.91"/><line class="cls-1" x1="1210.13" y1="1501.43" x2="833.16" y2="1500.77"/><line class="cls-1" x1="1442.47" y1="1570.87" x2="1209.69" y2="1501.37"/></svg>