<svg xmlns="http://www.w3.org/2000/svg" viewBox="0 0 2400 2400"><defs><style>.cls-1{fill:#6c9;}</style></defs><g id="Layer_2" data-name="Layer 2"><g id="Dollar_coin_internet_icon_v2" data-name="Dollar coin internet icon v2"><path id="Dollar_coin_icon" data-name="Dollar coin icon" class="cls-1" d="M1137.47,1.6C524.5,33.07,33.07,524.5,1.6,1137.47-34.8,1846.79,553.21,2434.8,1262.53,2398.4c613-31.47,1104.4-522.9,1135.87-1135.87C2434.8,553.21,1846.79-34.8,1137.47,1.6ZM1331.64,1811v182.58h-217V1819.93c-130.23-13.29-286.29-55.33-394.25-156.21L866,1484.92c113.07,74.32,212.07,107.83,317.16,112.25,151.31,6.37,219.44-53.9,215-135.22-10.63-196.16-620.7-189.35-620.7-533.76,0-187,127.56-316.7,337.08-352.46V407.08h217V571.64c140.77,18.29,244.1,77.84,330,156L1498,888.48c-80.87-63.08-156.85-100.28-249.7-102.66-136.84-3.52-182.09,60.86-181.08,125.69,2.83,182,610.61,169.55,610.61,534.38C1677.87,1628.85,1560,1769.54,1331.64,1811Z"/></g></g></svg>