<svg xmlns="http://www.w3.org/2000/svg" viewBox="0 0 256 256"><defs><style>.cls-1{fill:none;stroke:#6c9;stroke-linecap:round;stroke-linejoin:round;stroke-width:8px;}</style></defs><g id="Layer_2" data-name="Layer 2"><g id="Capa_1" data-name="Capa 1"><g id="icons"><g id="network"><g id="_laptop" data-name=" laptop"><path class="cls-1" d="M36,64H32A16,16,0,0,0,16,80V196"/><line class="cls-1" x1="240" y1="196" x2="240" y2="148"/><path class="cls-1" d="M4,220H104v8h48v-8H252a32,32,0,0,1-32,32H36A32,32,0,0,1,4,220Z"/></g><polyline class="cls-1" points="224 44 204 44 204 84 224 84"/><line class="cls-1" x1="204" y1="64" x2="220" y2="64"/><line class="cls-1" x1="164" y1="44" x2="164" y2="84"/><line class="cls-1" x1="188" y1="44" x2="164" y2="68"/><line class="cls-1" x1="164" y1="64" x2="188" y2="84"/><polyline class="cls-1" points="148 84 132 44 116 84"/><line class="cls-1" x1="120.82" y1="72" x2="143.21" y2="72"/><polyline class="cls-1" points="112 44 88 44 88 84"/><line class="cls-1" x1="88" y1="64" x2="104" y2="64"/><path class="cls-1" d="M92,124H236a16,16,0,0,0,16-16V20A16,16,0,0,0,236,4H76A16,16,0,0,0,60,20V164l48-40"/></g></g></g></g></svg>