<svg xmlns="http://www.w3.org/2000/svg" viewBox="0 0 2343 1717"><defs><style>.cls-1{fill:#fff;stroke-miterlimit:10;}.cls-1,.cls-2{stroke:#6c9;}.cls-2{fill:none;stroke-linecap:round;stroke-linejoin:round;stroke-width:8px;}</style></defs><g id="Layer_2" data-name="Layer 2"><g id="Capa_1" data-name="Capa 1"><g id="backgrounds_and_shadow" data-name="backgrounds and shadow"><g id="white_background" data-name="white background"><rect id="white_background-2" data-name="white background" class="cls-1" x="0.5" y="0.5" width="2342" height="1716" rx="40"/></g></g><g id="icons"><g id="network"><g id="_laptop" data-name=" laptop"><path class="cls-2" d="M1986.5,993.5h-4a16,16,0,0,0-16,16v116"/><line class="cls-2" x1="2190.5" y1="1125.5" x2="2190.5" y2="1077.5"/><path class="cls-2" d="M1954.5,1149.5h100v8h48v-8h100a32,32,0,0,1-32,32h-184a32,32,0,0,1-32-32Z"/></g><polyline class="cls-2" points="2174.5 973.5 2154.5 973.5 2154.5 1013.5 2174.5 1013.5"/><line class="cls-2" x1="2154.5" y1="993.5" x2="2170.5" y2="993.5"/><line class="cls-2" x1="2114.5" y1="973.5" x2="2114.5" y2="1013.5"/><line class="cls-2" x1="2138.5" y1="973.5" x2="2114.5" y2="997.5"/><line class="cls-2" x1="2114.5" y1="993.5" x2="2138.5" y2="1013.5"/><polyline class="cls-2" points="2098.5 1013.5 2082.5 973.5 2066.5 1013.5"/><line class="cls-2" x1="2071.32" y1="1001.5" x2="2093.71" y2="1001.5"/><polyline class="cls-2" points="2062.5 973.5 2038.5 973.5 2038.5 1013.5"/><line class="cls-2" x1="2038.5" y1="993.5" x2="2054.5" y2="993.5"/><path class="cls-2" d="M2042.5,1053.5h144a16,16,0,0,0,16-16v-88a16,16,0,0,0-16-16h-160a16,16,0,0,0-16,16v144l48-40"/></g></g></g></g></svg>