<svg xmlns="http://www.w3.org/2000/svg" viewBox="0 0 167.52 202.71"><g id="Layer_2" data-name="Layer 2"><g id="Layer_1-2" data-name="Layer 1"><path d="M166,60.73c-4.31-22-14.55-39.23-33-50.33C115.31-.18,96.28-2,77.06,1.92c-28,5.76-46.35,24.63-55.67,53.15C14.16,77.22,8.29,99.89,1.92,122.36,1,125.53.75,128.89,0,133.28l33.2.38c.37,16.05.71,30.94,1.06,45.88,9.53,2.62,18.59-.89,27.82,2.21,0,7.88,0,13.54,0,20.94,4.6.05,5.09,0,6.92,0l66.08-.36c2.47-.07,4.66-.18,6.8-.28.5-4.48-.08-9.11.46-13.58,1-8.09,1.76-16.34,3.88-24.13,4.16-15.2,9.32-30.08,13.81-45.18C165.71,100.14,169.93,81,166,60.73ZM146.05,76.35a45.69,45.69,0,0,1-4.17,10.05c-4.72,7.84-9.7,15.51-14.8,23.07-2.82,4.18-3,4-10,2.07,2-3.88,3.56-7.08,5.37-10.07,4.59-7.59,9.8-14.8,13.88-22.7,7.29-14.11,1.65-27.64-12.91-31.33-8-2-14.89.8-21.14,7.82,6.26,4.79,12.14,9.6,11.5,18.6-2.8,2.43-5,2-6.84-.88-.9-1.4-1.59-3-2.56-4.29-4.18-5.8-10.69-6.38-15.81-1.44-.78.76-1.24,2-2.1,2.49a29.4,29.4,0,0,1-4.81,1.57c-.36-2-1.62-4.6-.9-5.9,1.68-3,3.89-6.39,6.68-7.75a23.9,23.9,0,0,0,9.46-8.43c2.44-3.53,5.95-6.19,9-9.24C95.51,28.75,78.13,33.83,72,52.62a57.17,57.17,0,0,0-5.91,1.09,16.75,16.75,0,0,0-11.79,17.8c.74,7.84,5.45,12.49,14.16,12.82,11,.42,22.09.16,33.14.29,3.88,0,7.77.36,11.48.55,1.62,4.84.61,7.51-3.74,7.51-14.72,0-29.48.48-44.16-.39-10.81-.64-17.65-8.61-18.83-19.4-1.31-12,3.56-21.87,13.74-25.82,4.51-1.75,7.34-4.33,10-8.54a26.76,26.76,0,0,1,42.68-3.89,11.21,11.21,0,0,0,7.47,3.89c8.07.92,15.24,4.06,20.72,10.9C147.37,57.4,149.14,66.39,146.05,76.35Z"/></g></g></svg>