<svg xmlns="http://www.w3.org/2000/svg" viewBox="0 0 111.52 93.53"><defs><style>.cls-1{fill:#6c9;}</style></defs><g id="Layer_2" data-name="Layer 2"><g id="Ñëîé_1" data-name="Ñëîé 1"><path class="cls-1" d="M55.78,93.53a6.57,6.57,0,0,1-4.61-1.88L33.48,72.74H7.19A7.2,7.2,0,0,1,0,65.55V7.19A7.2,7.2,0,0,1,7.19,0h97.16a7.19,7.19,0,0,1,7.17,7.19V65.55a7.2,7.2,0,0,1-7.19,7.19H78.05L60.47,91.58A6.61,6.61,0,0,1,55.78,93.53ZM54,88.87a2.51,2.51,0,0,0,1.76.65,2.68,2.68,0,0,0,1.87-.71l18.69-20h28a3.22,3.22,0,0,0,3.22-3.22V7.19A3.21,3.21,0,0,0,104.35,4H7.19A3.23,3.23,0,0,0,4,7.19V65.55a3.23,3.23,0,0,0,3.22,3.22h28Z"/><path class="cls-1" d="M54.75,60.55c-11.68-6.88-20-14-22.91-19.62-2-3.92-3.71-11.86-1.11-17.24a13.07,13.07,0,0,1,9.57-7.34,15.3,15.3,0,0,1,2.43-.19c5.85,0,10.46,3.4,12.69,5.43l.34.3.34-.3c2.23-2,6.84-5.43,12.7-5.43a15.18,15.18,0,0,1,2.42.19,13.06,13.06,0,0,1,9.57,7.34c2.6,5.38.92,13.32-1.1,17.24C76.8,46.52,68.45,53.67,56.77,60.55l-1,.59Z"/></g></g></svg>