<svg xmlns="http://www.w3.org/2000/svg" viewBox="0 0 95.32 134.67"><defs><style>.cls-1{fill:none;}.cls-2{fill:#c66;}</style></defs><g id="Layer_2" data-name="Layer 2"><g id="Ñëîé_1" data-name="Ñëîé 1"><path class="cls-1" d="M25.14,134.67a2,2,0,0,1-1.91-1.43c-.33-1.11-8.12-27.19-18.44-37.52C.32,91.57-1.85,81.8,2,77.09a7.18,7.18,0,0,1,5.85-2.66c2.78,0,6.18,1.16,10.1,3.43l.75.44V39.92a8.5,8.5,0,0,1,17,0V56l.72-.36a8.25,8.25,0,0,1,3.73-.92,8.49,8.49,0,0,1,8.29,6.43l.16.63.57-.31a8.24,8.24,0,0,1,4-1.06,8.46,8.46,0,0,1,8.32,6.51l.15.64.58-.31a8.19,8.19,0,0,1,4-1,8.51,8.51,0,0,1,8.57,8.43V95.27a1,1,0,0,0,0,.15,2.7,2.7,0,0,1-.07.4l0,.05c-.45,1.52-8,27.1-8.43,36.9a2,2,0,0,1-2,1.9Z"/><path class="cls-2" d="M62,20.62a2.24,2.24,0,0,1-2.22-2.24v-.67a2.23,2.23,0,0,1,3.82-1.55,2.22,2.22,0,0,1,.65,1.58v.66A2.24,2.24,0,0,1,62,20.62Z"/><path class="cls-2" d="M76.32,20.62a2.22,2.22,0,0,1-2.22-2.24v-.67a2.23,2.23,0,0,1,3.82-1.55,2.22,2.22,0,0,1,.65,1.58v.66a2.23,2.23,0,0,1-2.23,2.22Z"/><path class="cls-2" d="M79.51,37.84a2,2,0,0,1-1.77-1.08c-.11-.21-2.77-5.2-8.57-5.2s-8.46,5-8.58,5.2a2,2,0,0,1-1.77,1.07A2,2,0,0,1,57.05,35c.16-.3,3.84-7.38,12.12-7.38s12,7.08,12.11,7.38a2,2,0,0,1-1.77,2.88Z"/><path class="cls-2" d="M69.17,52.3A26.15,26.15,0,1,1,95.32,26.15,26.18,26.18,0,0,1,69.17,52.3ZM69.17,4A22.18,22.18,0,1,0,91.35,26.15,22.21,22.21,0,0,0,69.17,4Z"/></g></g></svg>