<svg xmlns="http://www.w3.org/2000/svg" viewBox="0 0 119.28 134.67"><defs><style>.cls-1{fill:#6c9;}</style></defs><g id="Layer_2" data-name="Layer 2"><g id="Ñëîé_1" data-name="Ñëîé 1"><path class="cls-1" d="M49.1,134.67a2,2,0,0,1-1.9-1.43c-.33-1.11-8.12-27.19-18.45-37.52-4.47-4.15-6.63-13.92-2.82-18.63a7.18,7.18,0,0,1,5.85-2.66c2.78,0,6.18,1.16,10.1,3.43l.75.44V39.92a8.49,8.49,0,0,1,17,0V56l.73-.36a8.22,8.22,0,0,1,3.73-.92,8.5,8.5,0,0,1,8.29,6.43l.15.63.57-.31a8.31,8.31,0,0,1,4-1.06,8.46,8.46,0,0,1,8.32,6.51l.15.64.57-.31a8.22,8.22,0,0,1,4-1,8.52,8.52,0,0,1,8.58,8.43V95.27a1.39,1.39,0,0,1,0,.15,1.82,1.82,0,0,1-.07.4v.05c-.45,1.52-8,27.1-8.43,36.9a2,2,0,0,1-2,1.9ZM31.86,78.44A3.46,3.46,0,0,0,29,79.59c-2.22,2.75-.83,10.19,2.49,13.27,9.66,9.66,17,31.13,19,37.48l.11.35H86.33l0-.44C87.63,119.11,94,97.45,94.7,95l0-.07V74.6a4.53,4.53,0,0,0-9.06,0V82a2,2,0,0,1-4,0V68.8a4.53,4.53,0,0,0-9.06,0v10a2,2,0,1,1-4,0V63.12a4.52,4.52,0,0,0-9,0V76a2,2,0,1,1-4,0v-36a4.52,4.52,0,0,0-9,0V95.27a2,2,0,0,1-4,0V83l-.23-.15C38.11,80,34.36,78.44,31.86,78.44Z"/><path class="cls-1" d="M19,20.62a2.24,2.24,0,0,1-2.22-2.24v-.67A2.23,2.23,0,0,1,19,15.49a2.25,2.25,0,0,1,2.23,2.25v.66A2.24,2.24,0,0,1,19,20.62Z"/><path class="cls-1" d="M33.3,20.62A2.22,2.22,0,0,1,31.72,20a2.27,2.27,0,0,1-.64-1.58v-.67a2.23,2.23,0,0,1,3.82-1.55,2.22,2.22,0,0,1,.65,1.58v.66a2.22,2.22,0,0,1-2.23,2.22Z"/><path class="cls-1" d="M26.15,39.24c-8.28,0-12-7.07-12.12-7.38a1.94,1.94,0,0,1-.11-1.51,2,2,0,0,1,1-1.15A1.86,1.86,0,0,1,15.8,29a2,2,0,0,1,1.78,1.08c.11.22,2.79,5.21,8.57,5.21s8.46-5,8.57-5.2A2,2,0,0,1,36.49,29a1.94,1.94,0,0,1,.91.22,2,2,0,0,1,.86,2.65C38.11,32.17,34.43,39.24,26.15,39.24Z"/><path class="cls-1" d="M26.15,52.3A26.15,26.15,0,1,1,52.3,26.15a2,2,0,1,1-4,0,22.17,22.17,0,1,0-11.6,19.5,1.93,1.93,0,0,1,.94-.24,2,2,0,0,1,.95,3.73A26.16,26.16,0,0,1,26.15,52.3Z"/><path class="cls-1" d="M86,20.62A2.22,2.22,0,0,1,84.38,20a2.18,2.18,0,0,1-.64-1.58v-.67a2.23,2.23,0,0,1,3.82-1.55,2.22,2.22,0,0,1,.65,1.58v.66A2.24,2.24,0,0,1,86,20.62Z"/><path class="cls-1" d="M100.28,20.62A2.22,2.22,0,0,1,98.71,20a2.18,2.18,0,0,1-.64-1.58v-.67a2.23,2.23,0,0,1,3.82-1.55,2.17,2.17,0,0,1,.64,1.58v.66a2.24,2.24,0,0,1-2.23,2.22Z"/><path class="cls-1" d="M103.48,37.84a2,2,0,0,1-1.77-1.08c-.11-.21-2.77-5.2-8.57-5.2s-8.47,5-8.58,5.2A2,2,0,0,1,81,35c.15-.3,3.84-7.38,12.12-7.38s12,7.08,12.11,7.38a2,2,0,0,1-1.77,2.88Z"/><path class="cls-1" d="M93.14,52.3a26.15,26.15,0,1,1,26.14-26.15A26.18,26.18,0,0,1,93.14,52.3ZM93.14,4a22.18,22.18,0,1,0,22.17,22.18A22.21,22.21,0,0,0,93.14,4Z"/></g></g></svg>