<svg xmlns="http://www.w3.org/2000/svg" viewBox="0 0 46 48"><defs><style>.cls-1{fill:none;stroke:#52d99a;stroke-linecap:round;stroke-linejoin:round;stroke-width:2px;}</style></defs><g id="Layer_2" data-name="Layer 2"><g id="Fake_news_related_icons" data-name="Fake news related icons"><path class="cls-1" d="M9,35.5v-13a2,2,0,0,1,4,0v9"/><path class="cls-1" d="M13,31.5v-3a2,2,0,0,1,4,0v4"/><path class="cls-1" d="M17,30.5a2,2,0,0,1,4,0v3.57"/><path class="cls-1" d="M21,32.5a2,2,0,0,1,4,0v7.78a6.38,6.38,0,0,1-.88,3.28A5.58,5.58,0,0,0,23,47"/><path class="cls-1" d="M9,33.5A3.65,3.65,0,0,0,7.1,30,1.45,1.45,0,0,0,5,31.23V38.5a7.18,7.18,0,0,0,2.39,5.37A6.82,6.82,0,0,1,9.79,47"/><path class="cls-1" d="M17,23H41a4,4,0,0,0,4-4V5a4,4,0,0,0-4-4H5A4,4,0,0,0,1,5V19a4,4,0,0,0,4,4"/><polyline class="cls-1" points="21 16.5 15 16.5 15 6.5 21 6.5"/><line class="cls-1" x1="15" y1="11.5" x2="21" y2="11.5"/><polyline class="cls-1" points="5 16.5 5 6.5 11 16.5 11 6.5"/><polyline class="cls-1" points="32 6.5 30 16.5 28 8.5 26 16.5 24 6.5"/><path class="cls-1" d="M41,6.5H37A2.3,2.3,0,0,0,35,9h0a2.3,2.3,0,0,0,2,2.5h2A2.3,2.3,0,0,1,41,14h0a2.3,2.3,0,0,1-2,2.5H35"/></g></g></svg>