<svg xmlns="http://www.w3.org/2000/svg" viewBox="0 0 61 62.17"><defs><style>.cls-1{fill:none;stroke:#6c9;stroke-linecap:round;stroke-linejoin:round;stroke-width:2px;}</style></defs><g id="Layer_2" data-name="Layer 2"><g id="_64x64px_icons" data-name="64x64px icons"><path class="cls-1" d="M12,31a4,4,0,0,0-4,4v2a4,4,0,0,0,8,0V35A4,4,0,0,0,12,31Z"/><line class="cls-1" x1="6" y1="52" x2="6" y2="61.09"/><line class="cls-1" x1="18" y1="61.09" x2="18" y2="52"/><path class="cls-1" d="M21.62,58.88l4.67,2a2.93,2.93,0,0,0,3.69-1,2.62,2.62,0,0,0-1-3.69l-6-2.75s-2.06-3.5-3.48-6S14.65,44,12,44c-3.5,0-9.19.94-10,6L1,57l.51,4.09"/><line class="cls-1" x1="51" y1="51.96" x2="51" y2="61.09"/><path class="cls-1" d="M45,31a4,4,0,0,1,4,4v2a4,4,0,1,1-8,0V35A4,4,0,0,1,45,31Z"/><path class="cls-1" d="M39,61.09V52s-2.86,1.85-4.24,2.71A2.32,2.32,0,0,1,32,54.34L25.8,48a2.51,2.51,0,0,1,.05-3.54h0a2.51,2.51,0,0,1,3.54.05l4.17,4.28s2.79-2.19,4.28-3.19S41.34,44,45,44c3.5,0,9.19.94,10,6l1,7-.52,4.13"/><path class="cls-1" d="M36,9H15a3,3,0,0,0-3,3V24a3,3,0,0,0,3,3h5v8l7-8h9a3,3,0,0,0,3-3V12A3,3,0,0,0,36,9Z"/><path class="cls-1" d="M30,6V4a3,3,0,0,1,3-3H57a3,3,0,0,1,3,3V18a3,3,0,0,1-3,3H52v8l-7-8H42"/></g></g></svg>