<svg xmlns="http://www.w3.org/2000/svg" viewBox="0 0 415.04 515"><defs><style>.cls-1{fill:#6c9;}</style></defs><g id="Layer_2" data-name="Layer 2"><g id="Layer_1-2" data-name="Layer 1"><path d="M307.52,407.5v65.33a34.67,34.67,0,0,1-34.67,34.67H42.19A34.67,34.67,0,0,1,7.52,472.83V42.17A34.67,34.67,0,0,1,42.19,7.5H272.85a34.67,34.67,0,0,1,34.67,34.67V107.5"/><path d="M300,407.5v65.33c0,1,0,2.08-.14,3.12,0,.39-.28,1.88,0,.38-.12.67-.24,1.33-.38,2a32.6,32.6,0,0,1-.88,3.22c-.2.64-.43,1.25-.66,1.88.1-.28.61-1.27,0,0a39.14,39.14,0,0,1-3.64,6.18c.81-1.11.16-.2,0,0-.43.49-.84,1-1.29,1.47-.73.79-1.51,1.55-2.31,2.27-.32.29-.66.56-1,.85-1.57,1.37,1.21-.74-.54.41-1,.66-2,1.33-3,1.92s-1.93,1-2.92,1.48c-1.15.51,1.64-.52-.35.11-.53.17-1,.37-1.57.53q-1.44.45-2.91.78c-.66.14-1.32.26-2,.38,1.66-.29-.53,0-.72.05-1.06.09-2.12.11-3.19.11H42.6c-1,0-1.9,0-2.84-.09l-1.71-.15c1.51.18,0,0-.36-.1-1.1-.21-2.19-.47-3.26-.78s-1.89-.62-2.83-1c1.57.58-.42-.2-.62-.3-.59-.28-1.17-.58-1.75-.9A30.31,30.31,0,0,1,26.46,495s-1.69-1.22-.82-.56-.79-.67-.76-.64c-.82-.71-1.61-1.45-2.36-2.23-.37-.39-.74-.79-1.1-1.2-.21-.24-1.6-2.05-.66-.75A36,36,0,0,1,17.4,484c-.19-.39-.38-.79-.55-1.2.58,1.37,0,0-.09-.35-.37-1.17-.76-2.32-1.05-3.52-.16-.65-.28-1.31-.41-2-.3-1.44-.07-.34,0,0-.13-1.14-.21-2.29-.23-3.44,0-.26,0-.51,0-.77V67.58C15,59.29,15,51,15,42.7v-.51c0-.93,0-1.86.11-2.8,0,0,.27-2.17.09-1s.21-1.06.2-1a34.59,34.59,0,0,1,1-3.88c.13-.42.3-.84.43-1.26.64-2-.67,1.26.25-.65.47-1,.95-2,1.5-2.91s1.16-1.83,1.76-2.74c.15-.23.86-1.12,0,0,.41-.51.83-1,1.26-1.49.72-.8,1.48-1.58,2.27-2.31.34-.31,2.72-2.22,1.48-1.32a39.14,39.14,0,0,1,6.18-3.64c1.89-.91-.85.3.34-.13.52-.19,1-.38,1.57-.55a32.6,32.6,0,0,1,3.22-.88L38,15.28c2.13-.47-1.48.07.71-.11,1.15-.09,2.3-.16,3.46-.17H272.84l1.41,0c.69,0,1.37.09,2.06.14,1.64.12-1-.28.71.11a48.21,48.21,0,0,1,6.42,1.8c-1.3-.48-.24-.11,0,0,.59.28,1.18.56,1.76.87a33.59,33.59,0,0,1,3.36,2l1.06.75c-1.18-.85,0,0,.26.24.81.72,1.62,1.43,2.38,2.21s1.48,1.58,2.16,2.42-.92-1.43.21.29c.36.55.74,1.07,1.09,1.63.58.92,1.11,1.87,1.6,2.84.3.59.58,1.18.84,1.79-.13-.31-.44-1.3,0,0,.34,1.06.71,2.1,1,3.18.14.54.26,1.08.38,1.63.07.33.42,2.7.23,1a82.89,82.89,0,0,1,.24,9.59V107.5c0,3.92,3.45,7.68,7.5,7.5a7.63,7.63,0,0,0,7.5-7.5V46.12a61.26,61.26,0,0,0-1.08-13.43A42.61,42.61,0,0,0,296.69,7.41C288.6,1.66,279.1,0,269.42,0H46.76C38.65,0,30.91.82,23.41,4.42,9,11.36.07,26.68,0,42.5c0,2.53,0,5,0,7.58V448.66c0,8,0,15.93,0,23.9.09,16.3,9.51,31.87,24.58,38.56,7.31,3.24,14.75,3.88,22.55,3.88h222.6c10,0,19.78-2,28-8.18s14.61-15.44,16.47-25.84a72.31,72.31,0,0,0,.81-12.8V407.5c0-3.92-3.45-7.68-7.5-7.5a7.63,7.63,0,0,0-7.5,7.5Z"/><path class="cls-1" d="M107.52,400.94V171.33a20.39,20.39,0,0,1,20.39-20.39H387.13a20.39,20.39,0,0,1,20.39,20.39V330.56a20.38,20.38,0,0,1-20.39,20.38H157.52Z"/><path d="M115,400.94V173c0-1.1,0-2.21.07-3.31,0-.27.07-.55.08-.82,0-.1-.3,1.77-.12,1,.11-.46.18-.93.29-1.39s.28-1,.45-1.55c.06-.19.14-.37.2-.56.38-1.18,0,.11-.23.5.54-.8.87-1.78,1.4-2.61a10.72,10.72,0,0,0,.77-1.13c0,.08-1.22,1.46-.45.59l.51-.6a27,27,0,0,1,2.1-2c1.26-1.13-1.14.75-.12.1.5-.32,1-.66,1.49-1s.8-.45,1.22-.65a5.17,5.17,0,0,0,.71-.34s-1.6.59-.87.38c1-.31,2-.7,3.08-.93.26,0,.53-.09.79-.15.8-.19-1.07.12-1,.12.56,0,1.11-.12,1.66-.14l.86,0h259.2c.77,0,1.52.07,2.29.13s-1.07-.16-1-.13a7.23,7.23,0,0,0,.81.15c.52.11,1.05.24,1.57.39s1,.33,1.51.5c1.18.4-1.67-.83-.15,0,.95.49,1.84,1,2.73,1.58,1.31.86-1.05-.93-.11-.11.34.31.69.6,1,.91s.75.73,1.1,1.12,1.36,1.63.54.59.15.26.32.53c.28.44.55.89.8,1.35s.41.83.62,1.24c.43.81-.54-1.58-.29-.7.09.32.24.63.34.94a28.19,28.19,0,0,1,.7,2.74c.29,1.27-.17-1.81,0-.17.06.63.08,1.26.09,1.88v.17c0,1.3,0,2.6,0,3.9V330.55c0,.36,0,.7,0,1.05,0,.77-.55,2.55,0,.27-.23.92-.36,1.85-.65,2.75-.15.49-.43,1-.53,1.51,0,.06.74-1.54.36-.88-.16.29-.28.6-.43.89-.43.82-.93,1.58-1.43,2.35-.63,1,.4-.51.47-.57a7.22,7.22,0,0,0-.5.6c-.34.4-.7.78-1.06,1.15s-.76.72-1.15,1.06c-.15.13-.31.25-.45.38-.66.62,1.37-.91.58-.46s-1.75,1.15-2.69,1.63l-.53.26c-1.05.55.6-.26.7-.28-.45.1-.88.33-1.32.47s-.9.28-1.35.39-2.41.39-1,.25-.33,0-.65,0l-1.26,0H165c-2.47,0-5-.13-7.45,0-3.92.21-6,2.93-8.55,5.45l-9.25,9.25L115,382.87l-12.77,12.77c-2.78,2.78-3,7.87,0,10.61a7.63,7.63,0,0,0,10.6,0l16.87-16.87,26.92-26.92,6.21-6.21-5.3,2.19H379.28c2.58,0,5.17,0,7.75,0a27.88,27.88,0,0,0,28-28c0-3.57,0-7.14,0-10.7V178.49c0-4.43.21-8.89-.68-13.26-2-9.55-9.36-17.14-18.39-20.35a28.63,28.63,0,0,0-9.51-1.44H128a28,28,0,0,0-20.83,9.32A28.76,28.76,0,0,0,100,171.5c0,2.72,0,5.45,0,8.17V400.94c0,3.93,3.45,7.69,7.5,7.5A7.63,7.63,0,0,0,115,400.94Z"/><line x1="132.52" y1="45.17" x2="182.52" y2="45.17"/><path class="cls-1" d="M132.52,52.67h50c3.92,0,7.68-3.45,7.5-7.5a7.63,7.63,0,0,0-7.5-7.5h-50c-3.92,0-7.68,3.45-7.5,7.5a7.63,7.63,0,0,0,7.5,7.5Z"/><line x1="191.3" y1="232.5" x2="332.52" y2="232.5"/><path d="M191.3,240H315.12c5.72,0,11.45.1,17.17,0h.23c3.92,0,7.68-3.45,7.5-7.5a7.63,7.63,0,0,0-7.5-7.5H208.7c-5.72,0-11.45-.1-17.17,0h-.23c-3.93,0-7.68,3.45-7.5,7.5a7.63,7.63,0,0,0,7.5,7.5Z"/><line x1="191.3" y1="282.5" x2="282.52" y2="282.5"/><path d="M191.3,290h80c3.68,0,7.37.08,11.05,0h.16c3.92,0,7.68-3.45,7.5-7.5a7.63,7.63,0,0,0-7.5-7.5h-80c-3.68,0-7.37-.08-11,0h-.16c-3.93,0-7.68,3.45-7.5,7.5a7.63,7.63,0,0,0,7.5,7.5Z"/></g></g></svg>