<svg xmlns="http://www.w3.org/2000/svg" viewBox="0 0 95.13 51.93"><defs><style>.cls-1{fill:#6c9;}</style></defs><g id="Layer_2" data-name="Layer 2"><g id="_1" data-name=" 1"><path class="cls-1" d="M91,51.93H4.13A4.13,4.13,0,0,1,0,47.8V43.19a1.5,1.5,0,0,1,1.5-1.5H76A4.26,4.26,0,0,1,80,39H90.88a4.25,4.25,0,0,1,4.25,4.24V47.8A4.14,4.14,0,0,1,91,51.93ZM3,44.69V47.8a1.14,1.14,0,0,0,1.13,1.13H91a1.14,1.14,0,0,0,1.14-1.13V43.19A1.25,1.25,0,0,0,90.88,42H80a1.24,1.24,0,0,0-1.24,1.24,1.5,1.5,0,0,1-1.5,1.5Z"/><path class="cls-1" d="M77.27,44.69a1.49,1.49,0,0,1-1.38-.91c-.08-.18-8-18.26-33.68-29a3.72,3.72,0,0,1-2.3-2.54,3.76,3.76,0,0,1,.74-3.41l6.07-7.26A4.45,4.45,0,0,1,51.53.22L53,.7c1.35.46,32.48,11.5,41.82,41a1.5,1.5,0,1,1-2.86.91c-8.88-28-39.6-38.93-39.91-39l-1.46-.47A1.49,1.49,0,0,0,49,3.53L43,10.79a.77.77,0,0,0-.16.71.76.76,0,0,0,.49.52c26.9,11.23,35,29.8,35.36,30.59a1.5,1.5,0,0,1-1.38,2.08Z"/><path class="cls-1" d="M83.13,35.35a1.5,1.5,0,0,1-1.3-.75A59.78,59.78,0,0,0,65.67,16.84a1.5,1.5,0,1,1,1.79-2.4,62.48,62.48,0,0,1,17,18.65,1.51,1.51,0,0,1-1.29,2.26Z"/><path class="cls-1" d="M1.5,44.69A1.5,1.5,0,0,1,.57,42l39.78-31.3a1.5,1.5,0,0,1,1.85,2.36L2.43,44.37A1.5,1.5,0,0,1,1.5,44.69Z"/><path class="cls-1" d="M41.88,32.72a6.53,6.53,0,1,1,6.54-6.53A6.54,6.54,0,0,1,41.88,32.72Zm0-10.06a3.54,3.54,0,1,0,3.54,3.53A3.53,3.53,0,0,0,41.88,22.66Z"/><path class="cls-1" d="M27.19,39.79a5,5,0,1,1,5-5A5,5,0,0,1,27.19,39.79Zm0-7a2,2,0,1,0,2,2A2,2,0,0,0,27.19,32.76Z"/><path class="cls-1" d="M57.91,41a6.66,6.66,0,1,1,6.66-6.66A6.66,6.66,0,0,1,57.91,41Zm0-10.32a3.66,3.66,0,1,0,3.66,3.66A3.67,3.67,0,0,0,57.91,30.72Z"/><path class="cls-1" d="M48.06,39.79H38.39a1.5,1.5,0,0,1,0-3h9.67a1.5,1.5,0,0,1,0,3Z"/><path class="cls-1" d="M18.19,40.23h-1.9a1.5,1.5,0,0,1,0-3h1.9a1.5,1.5,0,1,1,0,3Z"/><path class="cls-1" d="M29.83,28.74a1.47,1.47,0,0,1-1.14-.53,1.5,1.5,0,0,1,.17-2.12L31.28,24a1.5,1.5,0,0,1,1.94,2.29L30.8,28.38A1.5,1.5,0,0,1,29.83,28.74Z"/><path class="cls-1" d="M54.28,25.88a1.46,1.46,0,0,1-.84-.26l-3-2a1.5,1.5,0,0,1,1.68-2.48l3,2a1.5,1.5,0,0,1-.84,2.74Z"/><path class="cls-1" d="M69.73,40.52H66.8a1.5,1.5,0,0,1,0-3h2.93a1.5,1.5,0,0,1,0,3Z"/></g></g></svg>